<svg viewBox="0 -1.6038 169.7994 35.4467" width="171px" height="36px" xmlns="http://www.w3.org/2000/svg">
  <defs>
    <linearGradient id="paint0_linear_120_1360" x1="15" y1="3" x2="15" y2="33" gradientUnits="userSpaceOnUse">
      <stop stop-color="#877EFF"/>
      <stop offset="0.4615" stop-color="#685DFF"/>
      <stop offset="1" stop-color="#3121FF"/>
    </linearGradient>
  </defs>
  <path fill-rule="evenodd" clip-rule="evenodd" d="M27.8333 18C27.8333 25.0877 22.0877 30.8333 15 30.8333C7.91234 30.8333 2.16666 25.0877 2.16666 18C2.16666 10.9123 7.91234 5.16666 15 5.16666C22.0877 5.16666 27.8333 10.9123 27.8333 18ZM30 18C30 26.2843 23.2843 33 15 33C6.71573 33 0 26.2843 0 18C0 9.71573 6.71573 3 15 3C23.2843 3 30 9.71573 30 18ZM23.2759 11.2759C23.2759 12.1329 22.5812 12.8276 21.7242 12.8276C20.8672 12.8276 20.1725 12.1329 20.1725 11.2759C20.1725 10.4189 20.8672 9.72418 21.7242 9.72418C22.5812 9.72418 23.2759 10.4189 23.2759 11.2759ZM10.4879 19.209C11.1556 21.7009 13.717 23.1797 16.2089 22.512C18.7008 21.8443 20.1796 19.2829 19.5119 16.791C18.8442 14.2991 16.2828 12.8203 13.7909 13.488C11.299 14.1557 9.82015 16.7171 10.4879 19.209ZM8.39503 19.7698C9.37244 23.4175 13.1219 25.5823 16.7696 24.6049C20.4174 23.6274 22.5821 19.878 21.6047 16.2302C20.6273 12.5825 16.8779 10.4177 13.2301 11.3952C9.58236 12.3726 7.41762 16.122 8.39503 19.7698Z" fill="url(#paint0_linear_120_1360)" transform="matrix(1, 0, 0, 1, 0, -3.552713678800501e-15)"/>
  <path d="M 32.519 25.183 L 32.519 6.478 Q 32.519 6.101 32.969 5.855 Q 33.418 5.608 33.969 5.608 Q 34.578 5.608 34.781 5.956 L 41.625 16.077 L 48.498 5.956 Q 48.701 5.608 49.223 5.608 Q 49.745 5.608 50.238 5.869 Q 50.731 6.13 50.731 6.478 L 50.731 25.183 Q 50.731 25.56 50.412 25.778 Q 50.093 25.995 49.658 25.995 Q 48.585 25.995 48.585 25.183 L 48.585 9.61 L 43.307 17.266 Q 42.611 18.281 41.596 18.281 Q 40.668 18.281 39.943 17.266 L 34.665 9.61 L 34.665 25.183 Q 34.665 25.56 34.346 25.778 Q 34.027 25.995 33.592 25.995 Q 32.519 25.995 32.519 25.183 Z" transform="matrix(0.956373, 0, 0, 1, 1.326355, 0)" style="fill: rgb(255, 255, 255);"/>
  <path d="M 54.406 20.079 L 54.406 12.249 Q 54.406 11.872 54.71 11.655 Q 55.015 11.437 55.421 11.437 Q 56.494 11.437 56.494 12.249 L 56.494 19.818 Q 56.494 20.891 57.074 21.732 Q 57.654 22.573 58.538 23.008 Q 59.423 23.443 60.278 23.661 Q 61.134 23.878 61.859 23.878 Q 63.918 23.878 65.745 22.602 Q 67.572 21.326 68.326 19.209 L 68.326 12.249 Q 68.326 11.466 69.428 11.466 Q 69.863 11.466 70.167 11.669 Q 70.472 11.872 70.472 12.249 L 70.472 26.14 Q 70.472 27.851 69.703 29.287 Q 68.935 30.722 67.717 31.592 Q 66.499 32.462 65.078 32.926 Q 63.657 33.39 62.265 33.39 Q 59.887 33.39 57.61 32.288 Q 55.334 31.186 55.305 29.33 Q 55.305 28.866 55.609 28.62 Q 55.914 28.373 56.349 28.373 Q 56.813 28.373 57.161 28.634 Q 57.509 28.895 57.509 29.301 Q 57.509 30.229 59.162 30.737 Q 60.815 31.244 62.41 31.244 Q 63.715 31.244 65.005 30.766 Q 66.296 30.287 67.311 29.113 Q 68.326 27.938 68.326 26.343 L 68.326 22.979 Q 65.687 25.995 61.598 25.995 Q 58.756 25.995 56.581 24.357 Q 54.406 22.718 54.406 20.079 Z" transform="matrix(0.956373, 0, 0, 1, 1.326355, 0)" style="fill: rgb(255, 255, 255);"/>
  <path d="M 73.314 20.717 Q 73.314 16.831 76.359 14.018 Q 79.404 11.205 83.261 11.205 Q 85.668 11.205 87.466 12.916 L 87.466 12.249 Q 87.466 11.466 88.568 11.466 Q 89.003 11.466 89.307 11.669 Q 89.612 11.872 89.612 12.249 L 89.612 26.14 Q 89.612 29.533 87.408 31.462 Q 85.204 33.39 82.275 33.39 Q 79.955 33.39 78.389 32.578 Q 76.823 31.766 76.794 29.881 Q 76.794 29.417 77.084 29.171 Q 77.374 28.924 77.809 28.924 Q 78.273 28.924 78.606 29.185 Q 78.94 29.446 78.94 29.852 Q 78.94 30.345 79.215 30.65 Q 79.491 30.954 80.1 31.07 Q 80.709 31.186 81.158 31.215 Q 81.608 31.244 82.42 31.244 Q 84.479 31.244 85.972 29.997 Q 87.466 28.75 87.466 26.343 L 87.466 20.456 Q 85.117 23.501 82.985 24.864 Q 80.854 26.227 78.592 26.227 Q 76.504 26.227 74.909 24.531 Q 73.314 22.834 73.314 20.717 Z M 75.402 20.775 Q 75.402 22.428 76.562 23.284 Q 77.722 24.139 79.027 24.139 Q 80.535 24.139 82.478 22.646 Q 84.421 21.152 85.711 19.311 Q 87.002 17.469 87.002 16.425 Q 87.002 15.555 86.494 14.874 Q 85.987 14.192 85.247 13.873 Q 84.508 13.554 83.899 13.395 Q 83.29 13.235 82.884 13.235 Q 80.042 13.235 77.722 15.512 Q 75.402 17.788 75.402 20.775 Z" transform="matrix(0.956373, 0, 0, 1, 1.326355, 0)" style="fill: rgb(255, 255, 255);"/>
  <path d="M 93.063 25.183 L 93.063 12.336 Q 93.063 11.553 94.165 11.553 Q 94.6 11.553 94.904 11.756 Q 95.209 11.959 95.209 12.336 L 95.209 15.961 Q 96.311 13.583 97.659 12.365 Q 99.008 11.147 101.241 11.147 Q 102.807 11.147 104.402 11.553 Q 105.243 11.959 105.243 12.655 Q 105.243 13.148 105.04 13.351 Q 104.837 13.554 104.373 13.612 Q 102.894 13.264 101.966 13.264 Q 99.82 13.264 98.051 15.381 Q 96.282 17.498 95.209 20.891 L 95.209 25.183 Q 95.209 25.56 94.89 25.778 Q 94.571 25.995 94.136 25.995 Q 93.063 25.995 93.063 25.183 Z" transform="matrix(0.956373, 0, 0, 1, 1.326355, 0)" style="fill: rgb(255, 255, 255);"/>
  <path d="M 105.557 20.717 Q 105.557 16.831 108.602 14.018 Q 111.647 11.205 115.504 11.205 Q 118.143 11.205 119.999 13.206 Q 121.855 15.207 121.855 17.759 L 121.826 25.357 Q 121.826 25.734 121.464 25.952 Q 121.101 26.169 120.666 26.169 Q 119.709 26.169 119.709 25.357 L 119.709 20.456 Q 117.36 23.501 115.229 24.864 Q 113.097 26.227 110.835 26.227 Q 108.747 26.227 107.152 24.531 Q 105.557 22.834 105.557 20.717 Z M 107.645 20.775 Q 107.645 22.428 108.805 23.284 Q 109.965 24.139 111.27 24.139 Q 112.778 24.139 114.721 22.646 Q 116.664 21.152 117.955 19.311 Q 119.245 17.469 119.245 16.425 Q 119.245 15.555 118.738 14.874 Q 118.23 14.192 117.491 13.873 Q 116.751 13.554 116.142 13.395 Q 115.533 13.235 115.127 13.235 Q 112.285 13.235 109.965 15.512 Q 107.645 17.788 107.645 20.775 Z" transform="matrix(0.956373, 0, 0, 1, 1.326355, 0)" style="fill: rgb(255, 255, 255);"/>
  <path d="M 125.075 25.183 L 125.075 12.336 Q 125.075 11.553 126.177 11.553 Q 126.612 11.553 126.916 11.756 Q 127.221 11.959 127.221 12.336 L 127.221 13.873 Q 128.149 12.771 129.483 11.988 Q 130.817 11.205 132.122 11.205 Q 135.689 11.205 137.197 13.786 Q 138.096 12.539 139.502 11.872 Q 140.909 11.205 142.359 11.205 Q 145.056 11.205 146.622 12.742 Q 148.188 14.279 148.188 17.005 Q 148.188 17.266 148.173 19.862 Q 148.159 22.457 148.159 25.299 Q 148.159 25.676 147.84 25.894 Q 147.521 26.111 147.115 26.111 Q 146.042 26.111 146.042 25.299 L 146.042 17.266 Q 146.042 13.351 142.475 13.351 Q 141.953 13.351 141.416 13.453 Q 140.88 13.554 140.256 13.844 Q 139.633 14.134 139.14 14.555 Q 138.647 14.975 138.328 15.7 Q 138.009 16.425 138.009 17.324 Q 138.009 18.455 137.994 20.195 Q 137.98 21.935 137.98 25.299 Q 137.98 25.676 137.646 25.894 Q 137.313 26.111 136.878 26.111 Q 135.863 26.111 135.863 25.299 L 135.863 17.266 Q 135.863 15.149 134.848 14.25 Q 133.833 13.351 132.238 13.351 Q 130.701 13.351 129.265 14.511 Q 127.83 15.671 127.221 17.208 L 127.221 25.183 Q 127.221 25.56 126.902 25.778 Q 126.583 25.995 126.148 25.995 Q 125.075 25.995 125.075 25.183 Z" transform="matrix(0.956373, 0, 0, 1, 1.326355, 0)" style="fill: rgb(255, 255, 255);"/>
  <path d="M 151.458 25.183 L 151.458 12.336 Q 151.458 11.553 152.56 11.553 Q 152.995 11.553 153.299 11.756 Q 153.604 11.959 153.604 12.336 L 153.604 13.873 Q 154.532 12.771 155.866 11.988 Q 157.2 11.205 158.505 11.205 Q 162.072 11.205 163.58 13.786 Q 164.479 12.539 165.885 11.872 Q 167.292 11.205 168.742 11.205 Q 171.439 11.205 173.005 12.742 Q 174.571 14.279 174.571 17.005 Q 174.571 17.266 174.556 19.862 Q 174.542 22.457 174.542 25.299 Q 174.542 25.676 174.223 25.894 Q 173.904 26.111 173.498 26.111 Q 172.425 26.111 172.425 25.299 L 172.425 17.266 Q 172.425 13.351 168.858 13.351 Q 168.336 13.351 167.799 13.453 Q 167.263 13.554 166.639 13.844 Q 166.016 14.134 165.523 14.555 Q 165.03 14.975 164.711 15.7 Q 164.392 16.425 164.392 17.324 Q 164.392 18.455 164.377 20.195 Q 164.363 21.935 164.363 25.299 Q 164.363 25.676 164.029 25.894 Q 163.696 26.111 163.261 26.111 Q 162.246 26.111 162.246 25.299 L 162.246 17.266 Q 162.246 15.149 161.231 14.25 Q 160.216 13.351 158.621 13.351 Q 157.084 13.351 155.648 14.511 Q 154.213 15.671 153.604 17.208 L 153.604 25.183 Q 153.604 25.56 153.285 25.778 Q 152.966 25.995 152.531 25.995 Q 151.458 25.995 151.458 25.183 Z" transform="matrix(0.956373, 0, 0, 1, 1.326355, 0)" style="fill: rgb(255, 255, 255);"/>
</svg>
